<svg width="18" height="18" viewBox="0 0 18 18" fill="none" xmlns="http://www.w3.org/2000/svg">
<path d="M2.20194 3.15157L2.22602 3.13652L5.27031 1.63672L8.55612 6.01779L7.0444 8.03354C7.08963 8.79373 7.41201 9.51095 7.9505 10.0494C8.48899 10.5879 9.20622 10.9103 9.96641 10.9555L11.9821 9.4438L16.3632 12.7295L14.8758 15.7484L14.8633 15.7739L14.8482 15.7979C14.7689 15.9258 14.6581 16.0312 14.5264 16.1042C14.3948 16.1772 14.2467 16.2152 14.0961 16.2148H13.3106C11.7971 16.2148 10.2983 15.9166 8.89999 15.3374C7.50165 14.7582 6.23109 13.9092 5.16085 12.839C4.09061 11.7688 3.24165 10.4982 2.66244 9.09985C2.08324 7.70151 1.78512 6.20278 1.78513 4.68923V3.90366C1.78465 3.75315 1.8227 3.60502 1.89566 3.47337C1.96862 3.34172 2.07406 3.23094 2.20194 3.15157ZM2.91013 4.68923C2.91013 10.4241 7.57578 15.0898 13.3106 15.0898H13.9462L14.9414 13.0696L11.9819 10.85L10.3342 12.0857H10.1468C9.02453 12.0844 7.94863 11.6381 7.1551 10.8445C6.36156 10.051 5.91521 8.9751 5.91395 7.85287V7.66538L7.14966 6.01775L4.93031 3.05847L2.91013 4.05378V4.68923Z" fill="#3F4E65"/>
</svg>
