<svg width="20" height="16" viewBox="0 0 20 16" fill="none" xmlns="http://www.w3.org/2000/svg">
<g opacity="0.23" clip-path="url(#clip0_56_1572)">
<path d="M13.3035 7.99994C12.7753 7.99994 12.2785 7.71869 12.0097 7.26869L10.0003 3.93743L7.9941 7.26869C7.72222 7.72181 7.22535 8.00306 6.69722 8.00306C6.5566 8.00306 6.41597 7.98431 6.2816 7.94369L2.00035 6.71868V12.2812C2.00035 12.7406 2.31285 13.1406 2.7566 13.2499L9.51285 14.9406C9.8316 15.0187 10.166 15.0187 10.4816 14.9406L17.2441 13.2499C17.6878 13.1374 18.0003 12.7374 18.0003 12.2812V6.71868L13.7191 7.94056C13.5847 7.98119 13.4441 7.99994 13.3035 7.99994ZM19.9472 4.49369L18.3378 1.28118C18.241 1.08743 18.0316 0.974934 17.816 1.00306L10.0003 1.99993L12.866 6.75306C12.9847 6.94993 13.2222 7.04368 13.4441 6.98118L19.6285 5.21556C19.9378 5.12493 20.0878 4.78118 19.9472 4.49369ZM1.66285 1.28118L0.0534711 4.49369C-0.0902789 4.78118 0.0628461 5.12493 0.369096 5.21243L6.55347 6.97806C6.77535 7.04056 7.01285 6.94681 7.1316 6.74993L10.0003 1.99993L2.1816 1.00306C1.96597 0.978059 1.75972 1.08743 1.66285 1.28118Z" fill="#3F4E65"/>
</g>
<defs>
<clipPath id="clip0_56_1572">
<rect width="20" height="16" fill="white"/>
</clipPath>
</defs>
</svg>
