<svg viewBox="0 0 24 17" xmlns="http://www.w3.org/2000/svg">
<path d="M23.5671 3.29693C23.4146 3.08392 23.21 2.97741 22.9532 2.97741H6.6067L6.16304 1.82241C6.0507 1.44372 5.89822 1.12027 5.70563 0.852034C5.51303 0.583801 5.3084 0.39446 5.09173 0.284011C4.87506 0.173562 4.68648 0.098615 4.52598 0.059169C4.36549 0.019723 4.20499 0 4.0445 0H0.746306C0.537661 0 0.361116 0.0710028 0.216669 0.213008C0.0722232 0.355014 0 0.536466 0 0.757363C0 0.883591 0.0320992 1.00587 0.0962975 1.12421C0.160496 1.24255 0.252781 1.33327 0.373153 1.39639C0.493525 1.4595 0.617909 1.49106 0.746306 1.49106H4.0445C4.1087 1.49106 4.16888 1.49895 4.22506 1.51473C4.28123 1.5305 4.35746 1.59756 4.45376 1.7159C4.55006 1.83424 4.63031 2.01175 4.69451 2.24842L8.14746 11.7297C8.17956 11.8243 8.23172 11.9151 8.30394 12.0018C8.37617 12.0886 8.46043 12.1557 8.55673 12.203C8.65302 12.2504 8.75735 12.274 8.86969 12.274H19.2698C19.4303 12.274 19.5788 12.2267 19.7152 12.132C19.8516 12.0373 19.9439 11.919 19.9921 11.777L23.6754 3.99512C23.7557 3.74267 23.7196 3.50993 23.5671 3.29693ZM18.7402 10.7593H9.47155L7.01596 4.49214H21.8458L18.7402 10.7593ZM17.3519 13.0954C16.8223 13.0954 16.3689 13.2808 15.9917 13.6516C15.6145 14.0224 15.426 14.4681 15.426 14.9888C15.426 15.5095 15.6145 15.9552 15.9917 16.326C16.3689 16.6968 16.8223 16.8822 17.3519 16.8822C17.8815 16.8822 18.3349 16.6968 18.7121 16.326C19.0893 15.9552 19.2779 15.5095 19.2779 14.9888C19.2779 14.4681 19.0893 14.0224 18.7121 13.6516C18.3349 13.2808 17.8815 13.0954 17.3519 13.0954ZM10.4185 13.0954C10.0654 13.0954 9.74038 13.1822 9.44347 13.3557C9.14655 13.5293 8.91383 13.7581 8.74531 14.0421C8.57679 14.3261 8.49253 14.6417 8.49253 14.9888C8.49253 15.5095 8.68111 15.9552 9.05828 16.326C9.43544 16.6968 9.88884 16.8822 10.4185 16.8822C10.9481 16.8822 11.4015 16.6968 11.7787 16.326C12.1558 15.9552 12.3444 15.5095 12.3444 14.9888C12.3444 14.8626 12.3324 14.7363 12.3083 14.6101C12.2842 14.4839 12.2481 14.3655 12.2 14.2551C12.1518 14.1447 12.0916 14.0381 12.0194 13.9356C11.9472 13.833 11.867 13.7384 11.7787 13.6516C11.6904 13.5648 11.5941 13.4859 11.4898 13.4149C11.3855 13.3439 11.2771 13.2847 11.1648 13.2374C11.0524 13.1901 10.9321 13.1546 10.8037 13.1309C10.6753 13.1072 10.5469 13.0954 10.4185 13.0954Z" />
</svg>
