<svg width="20" height="20" viewBox="0 0 20 20" fill="none" xmlns="http://www.w3.org/2000/svg">
<path d="M10 10.8335C11.3807 10.8335 12.5 9.71421 12.5 8.3335C12.5 6.95278 11.3807 5.8335 10 5.8335C8.61929 5.8335 7.5 6.95278 7.5 8.3335C7.5 9.71421 8.61929 10.8335 10 10.8335Z" stroke="#3F4E65" stroke-width="1.3" stroke-linecap="round" stroke-linejoin="round"/>
<path d="M9.99998 1.66675C8.23187 1.66675 6.53618 2.36913 5.28593 3.61937C4.03569 4.86961 3.33331 6.5653 3.33331 8.33342C3.33331 9.91008 3.66831 10.9417 4.58331 12.0834L9.99998 18.3334L15.4166 12.0834C16.3316 10.9417 16.6666 9.91008 16.6666 8.33342C16.6666 6.5653 15.9643 4.86961 14.714 3.61937C13.4638 2.36913 11.7681 1.66675 9.99998 1.66675V1.66675Z" stroke="#3F4E65" stroke-width="1.3" stroke-linecap="round" stroke-linejoin="round"/>
</svg>
