<svg width="20" height="20" viewBox="0 0 20 20" fill="none" xmlns="http://www.w3.org/2000/svg">
<path d="M4.37499 3.33325H15.625C16.3168 3.33321 16.9823 3.59788 17.4852 4.07298C17.988 4.54808 18.29 5.19758 18.3292 5.88825L18.3333 6.04158V13.9583C18.3334 14.65 18.0687 15.3156 17.5936 15.8184C17.1185 16.3213 16.469 16.6233 15.7783 16.6624L15.625 16.6666H4.37499C3.68321 16.6666 3.01763 16.402 2.5148 15.9269C2.01196 15.4518 1.70999 14.8023 1.67082 14.1116L1.66666 13.9583V6.04158C1.66661 5.3498 1.93128 4.68423 2.40638 4.18139C2.88148 3.67856 3.53098 3.37658 4.22166 3.33742L4.37499 3.33325H15.625H4.37499ZM17.0833 7.81075L10.2917 11.3858C10.215 11.4263 10.1307 11.4504 10.0442 11.4565C9.95767 11.4627 9.87082 11.4508 9.78916 11.4216L9.70916 11.3866L2.91666 7.81158V13.9583C2.91667 14.3242 3.0543 14.6768 3.30222 14.9461C3.55015 15.2153 3.89024 15.3815 4.25499 15.4116L4.37499 15.4166H15.625C15.9911 15.4166 16.3438 15.2788 16.6131 15.0307C16.8823 14.7826 17.0484 14.4423 17.0783 14.0774L17.0833 13.9583V7.81075ZM15.625 4.58325H4.37499C4.009 4.58327 3.65639 4.72089 3.38716 4.96882C3.11794 5.21674 2.95177 5.55683 2.92166 5.92159L2.91666 6.04158V6.39908L9.99999 10.1266L17.0833 6.39825V6.04158C17.0833 5.67546 16.9455 5.32274 16.6975 5.0535C16.4494 4.78425 16.1091 4.61817 15.7442 4.58825L15.625 4.58325Z" fill="#3F4E65"/>
</svg>
