<svg width="61" height="39" viewBox="0 0 61 39" fill="none" xmlns="http://www.w3.org/2000/svg">
<g clip-path="url(#clip0_8969_704)">
<rect width="60.9375" height="39" rx="3" fill="#0F3560"/>
<path d="M35.5648 29.12H24.8623V9.88574H35.5648V29.12Z" fill="#FF5F00"/>
<path d="M25.5483 19.5013C25.5483 15.5995 27.3752 12.124 30.22 9.88416C28.1397 8.2463 25.5141 7.26873 22.6607 7.26873C15.9055 7.26873 10.4297 12.7454 10.4297 19.5013C10.4297 26.2573 15.9055 31.7339 22.6607 31.7339C25.5141 31.7339 28.1397 30.7563 30.22 29.1185C27.3752 26.8787 25.5483 23.4031 25.5483 19.5013Z" fill="#EB001B"/>
<path d="M50.0001 19.5013C50.0001 26.2573 44.5243 31.7339 37.7691 31.7339C34.9157 31.7339 32.2901 30.7563 30.209 29.1185C33.0546 26.8787 34.8815 23.4031 34.8815 19.5013C34.8815 15.5995 33.0546 12.124 30.209 9.88416C32.2901 8.2463 34.9157 7.26873 37.7691 7.26873C44.5243 7.26873 50.0001 12.7454 50.0001 19.5013Z" fill="#F79E1B"/>
<path d="M19.6333 19.5789C19.6333 19.0446 19.9834 18.6056 20.5556 18.6056C21.1023 18.6056 21.4713 19.0257 21.4713 19.5789C21.4713 20.1321 21.1023 20.5522 20.5556 20.5522C19.9834 20.5522 19.6333 20.1132 19.6333 19.5789ZM22.0945 19.5789V18.0589H21.4335V18.428C21.2238 18.1543 20.9057 17.9825 20.4733 17.9825C19.6209 17.9825 18.9526 18.6508 18.9526 19.5789C18.9526 20.5078 19.6209 21.1753 20.4733 21.1753C20.9057 21.1753 21.2238 21.0035 21.4335 20.7298V21.0989H22.0945V19.5789ZM44.4309 19.5789C44.4309 19.0446 44.7811 18.6056 45.3532 18.6056C45.9006 18.6056 46.269 19.0257 46.269 19.5789C46.269 20.1321 45.9006 20.5522 45.3532 20.5522C44.7811 20.5522 44.4309 20.1132 44.4309 19.5789ZM46.8928 19.5789V16.8382H46.2311V18.428C46.0215 18.1543 45.7034 17.9825 45.271 17.9825C44.4185 17.9825 43.7503 18.6508 43.7503 19.5789C43.7503 20.5078 44.4185 21.1753 45.271 21.1753C45.7034 21.1753 46.0215 21.0035 46.2311 20.7298V21.0989H46.8928V19.5789ZM30.2992 18.5743C30.7251 18.5743 30.9988 18.8415 31.0686 19.3117H29.4912C29.5618 18.8728 29.8282 18.5743 30.2992 18.5743ZM30.3123 17.9825C29.4213 17.9825 28.7982 18.6311 28.7982 19.5789C28.7982 20.5456 29.4468 21.1753 30.3567 21.1753C30.8146 21.1753 31.2339 21.061 31.603 20.7494L31.279 20.2595C31.0242 20.4626 30.6996 20.5776 30.3946 20.5776C29.9687 20.5776 29.5807 20.3804 29.4854 19.833H31.7427C31.7493 19.7507 31.7558 19.6677 31.7558 19.5789C31.7493 18.6311 31.164 17.9825 30.3123 17.9825ZM38.2936 19.5789C38.2936 19.0446 38.6437 18.6056 39.2159 18.6056C39.7626 18.6056 40.1316 19.0257 40.1316 19.5789C40.1316 20.1321 39.7626 20.5522 39.2159 20.5522C38.6437 20.5522 38.2936 20.1132 38.2936 19.5789ZM40.7548 19.5789V18.0589H40.0938V18.428C39.8834 18.1543 39.566 17.9825 39.1336 17.9825C38.2812 17.9825 37.6129 18.6508 37.6129 19.5789C37.6129 20.5078 38.2812 21.1753 39.1336 21.1753C39.566 21.1753 39.8834 21.0035 40.0938 20.7298V21.0989H40.7548V19.5789ZM34.5606 19.5789C34.5606 20.5012 35.2027 21.1753 36.1825 21.1753C36.6404 21.1753 36.9454 21.0734 37.2759 20.8128L36.9585 20.2785C36.7103 20.4568 36.4497 20.5522 36.1628 20.5522C35.6351 20.5456 35.2471 20.1642 35.2471 19.5789C35.2471 18.9936 35.6351 18.6122 36.1628 18.6056C36.4497 18.6056 36.7103 18.701 36.9585 18.8793L37.2759 18.345C36.9454 18.0844 36.6404 17.9825 36.1825 17.9825C35.2027 17.9825 34.5606 18.6566 34.5606 19.5789ZM43.0827 17.9825C42.7013 17.9825 42.4531 18.1608 42.2813 18.428V18.0589H41.6261V21.0989H42.2878V19.3947C42.2878 18.8917 42.504 18.6122 42.9364 18.6122C43.0704 18.6122 43.2101 18.6311 43.3499 18.6886L43.5537 18.0655C43.4074 18.008 43.2167 17.9825 43.0827 17.9825ZM25.3637 18.3006C25.0456 18.091 24.6074 17.9825 24.124 17.9825C23.3538 17.9825 22.8581 18.3516 22.8581 18.9558C22.8581 19.4515 23.2272 19.7572 23.9071 19.8526L24.2194 19.897C24.5819 19.948 24.7529 20.0433 24.7529 20.2151C24.7529 20.4503 24.5113 20.5842 24.0599 20.5842C23.6021 20.5842 23.2716 20.4379 23.0488 20.2661L22.7373 20.7807C23.0998 21.0479 23.5577 21.1753 24.0534 21.1753C24.9313 21.1753 25.4401 20.7618 25.4401 20.1831C25.4401 19.6488 25.0398 19.3692 24.3781 19.2739L24.0665 19.2288C23.7804 19.1909 23.5511 19.1341 23.5511 18.9303C23.5511 18.7075 23.7673 18.5743 24.1298 18.5743C24.5178 18.5743 24.8934 18.7206 25.0776 18.8349L25.3637 18.3006ZM33.8924 17.9825C33.5109 17.9825 33.2627 18.1608 33.0916 18.428V18.0589H32.4365V21.0989H33.0974V19.3947C33.0974 18.8917 33.3136 18.6122 33.7461 18.6122C33.88 18.6122 34.0198 18.6311 34.1595 18.6886L34.3634 18.0655C34.217 18.008 34.0263 17.9825 33.8924 17.9825ZM28.2515 18.0589H27.1705V17.1366H26.5022V18.0589H25.8856V18.6631H26.5022V20.0499C26.5022 20.7553 26.7759 21.1753 27.5577 21.1753C27.8446 21.1753 28.175 21.0865 28.3847 20.9402L28.194 20.3738C27.9967 20.4881 27.7805 20.5456 27.6087 20.5456C27.2782 20.5456 27.1705 20.3418 27.1705 20.0368V18.6631H28.2515V18.0589ZM18.3681 21.0989V19.1909C18.3681 18.4724 17.9102 17.9891 17.1721 17.9825C16.7841 17.9759 16.3837 18.0968 16.1034 18.5234C15.8938 18.1863 15.5633 17.9825 15.0989 17.9825C14.7742 17.9825 14.4568 18.0779 14.2086 18.4338V18.0589H13.5469V21.0989H14.2144V19.4137C14.2144 18.8859 14.507 18.6056 14.9591 18.6056C15.3981 18.6056 15.6201 18.8917 15.6201 19.4071V21.0989H16.2883V19.4137C16.2883 18.8859 16.5933 18.6056 17.0323 18.6056C17.4836 18.6056 17.6998 18.8917 17.6998 19.4071V21.0989H18.3681Z" fill="white"/>
</g>
<defs>
<clipPath id="clip0_8969_704">
<rect width="61" height="39" fill="white"/>
</clipPath>
</defs>
</svg>
